<?xml version="1.0" encoding="UTF-8"?>
<svg version="1.1" xmlns="http://www.w3.org/2000/svg" width="89" height="49">
<path d="M0 0 C-5.01877876 17.25047573 -21.15800482 29.87922132 -35.96875 38.78515625 C-45.76027325 44.04406503 -56.99555234 47.43669407 -68 49 C-68.845625 49.12503906 -69.69125 49.25007813 -70.5625 49.37890625 C-76.92713292 49.85829367 -76.92713292 49.85829367 -79.8359375 47.53125 C-85.1239117 40.76693783 -89.11999422 32.18676156 -89.1328125 23.5234375 C-89.13410156 22.688125 -89.13539062 21.8528125 -89.13671875 20.9921875 C-89.13285156 20.12851562 -89.12898438 19.26484375 -89.125 18.375 C-89.12886719 17.50359375 -89.13273437 16.6321875 -89.13671875 15.734375 C-89.13542969 14.90164063 -89.13414063 14.06890625 -89.1328125 13.2109375 C-89.13168457 12.45087402 -89.13055664 11.69081055 -89.12939453 10.90771484 C-89 9 -89 9 -88 7 C-83.96596201 7.7293176 -80.11253702 8.82292164 -76.1875 10 C-71.03674322 11.4777639 -66.34029658 12.64981662 -61 13 C-60.23171875 13.0515625 -59.4634375 13.103125 -58.671875 13.15625 C-46.63916947 13.58856277 -34.50631279 10.97178598 -23.3203125 6.671875 C-21 6 -21 6 -18 7 C-14.66249719 7 -11.90858004 5.01269524 -9 3.5 C-2.27027027 0 -2.27027027 0 0 0 Z " fill="#000000" transform="translate(89,0)"/>
</svg>
